<?xml version="1.0" encoding="UTF-8" standalone="no"?>
<!-- Created with Inkscape (http://www.inkscape.org/) -->

<svg
   width="256"
   height="256"
   viewBox="0 0 67.733332 67.733333"
   version="1.1"
   id="svg1"
   inkscape:version="1.4 (e7c3feb100, 2024-10-09)"
   sodipodi:docname="chnots.svg"
   xmlns:inkscape="http://www.inkscape.org/namespaces/inkscape"
   xmlns:sodipodi="http://sodipodi.sourceforge.net/DTD/sodipodi-0.dtd"
   xmlns="http://www.w3.org/2000/svg"
   xmlns:svg="http://www.w3.org/2000/svg">
  <sodipodi:namedview
     id="namedview1"
     pagecolor="#505050"
     bordercolor="#eeeeee"
     borderopacity="1"
     inkscape:showpageshadow="0"
     inkscape:pageopacity="0"
     inkscape:pagecheckerboard="0"
     inkscape:deskcolor="#505050"
     inkscape:document-units="mm"
     inkscape:zoom="2.3989036"
     inkscape:cx="100.0457"
     inkscape:cy="142.56513"
     inkscape:window-width="1903"
     inkscape:window-height="1023"
     inkscape:window-x="0"
     inkscape:window-y="0"
     inkscape:window-maximized="0"
     inkscape:current-layer="layer1" />
  <defs
     id="defs1" />
  <g
     inkscape:label="Layer 1"
     inkscape:groupmode="layer"
     id="layer1">
    <path
       style="fill:#206090;fill-opacity:1;stroke:#222222;stroke-width:3;stroke-dasharray:none;stroke-opacity:1;stroke-linecap:round"
       id="path1"
       d="m 11.958292,21.416326 c 0.22313,-0.244319 0.424185,-0.510801 0.66939,-0.732958 2.228571,-2.019105 4.880861,-3.47297 7.51673,-4.879987 4.051943,-2.162913 4.140279,-2.121462 8.452059,-4.098971 5.722294,-2.4314152 11.629318,-4.4822371 17.764582,-5.5756007 3.214481,-0.5728515 3.726257,-0.5122778 6.842554,-0.6820977 1.899554,0.067376 2.923418,0.025741 4.739431,0.3556106 0.545875,0.099155 1.092324,0.2195301 1.6125,0.4124767 0.414396,0.1537107 1.587759,0.7700306 1.171898,0.6203315 -2.435913,-0.876863 -2.471547,-1.8579888 -1.756172,0.1702184 -0.02659,0.6182486 0.02405,1.2446981 -0.07978,1.854746 -0.298059,1.7512502 -1.011534,3.5726932 -1.782297,5.1540922 -1.068898,2.193091 -2.13772,3.882626 -3.657735,5.808782 -0.736253,0.932977 -1.567378,1.787004 -2.351069,2.680507 -2.321396,2.1626 -2.814989,2.795953 -5.465029,4.569119 -1.940108,1.298141 -3.826672,2.261595 -5.956634,3.192129 -2.253054,0.984314 -2.924204,1.138907 -5.195882,1.86572 -2.733794,0.772438 -5.530434,1.337024 -8.367901,1.517637 -0.341728,-0.0361 -0.858144,0.06143 -1.190764,-0.08392 -0.05597,-0.02445 -0.192032,-0.149704 -0.138952,-0.119476 3.302278,1.880627 3.851209,0.779029 3.275637,1.922685 0.09446,-0.09179 0.182092,-0.191188 0.283385,-0.275381 0.377346,-0.313642 0.85176,-0.620644 1.264266,-0.868251 1.002753,-0.601906 2.052207,-1.088814 3.114271,-1.574181 1.28243,-0.514266 2.560761,-1.169726 3.946247,-1.366843 0.703106,-0.100034 1.030269,-0.04325 1.725922,0.0028 0.778737,0.203517 0.763661,0.156905 1.477348,0.508124 0.206497,0.101621 0.804029,0.448344 0.602898,0.336481 -0.891635,-0.495903 -1.755698,-1.044863 -2.674408,-1.488599 -0.156527,-0.0756 0.277537,0.222422 0.364514,0.372925 0.09401,0.162671 0.108572,0.359741 0.162856,0.53961 -0.02832,0.251741 -0.01476,0.51181 -0.08497,0.755221 -0.244451,0.847712 -0.760211,1.679062 -1.255159,2.386841 -1.030087,1.473033 -2.235962,2.684105 -3.498036,3.948896 -1.418582,1.280721 -2.859809,2.613506 -4.571912,3.497715 -0.07731,0.02267 -0.301048,0.02662 -0.231947,0.06806 1.10908,0.665078 2.268625,1.242497 3.415117,1.84078 0.01868,0.0097 0.03966,-0.01606 0.05591,-0.02947 0.148156,-0.122309 0.281938,-0.2622 0.436163,-0.376759 0.594085,-0.441291 0.798224,-0.50391 1.487832,-0.8529 1.169942,-0.401712 2.761292,-0.962184 3.997629,-0.525563 0.324638,0.114646 1.220639,0.631666 0.899393,0.507833 -0.723236,-0.278797 -1.407393,-0.649949 -2.11109,-0.974921 0.253286,0.382887 0.556514,0.737069 0.759852,1.14866 1.008563,2.041503 1.129567,4.631565 0.794504,6.843672 -0.09629,0.635739 -0.265864,1.258197 -0.398796,1.887297 -0.539149,1.959536 -1.305843,3.857009 -2.327386,5.615673 -0.160337,0.276034 -0.339524,0.540681 -0.509288,0.811022 0,0 3.059403,1.755894 3.059403,1.755894 v 0 c 1.0121,-2.169938 1.899185,-4.408167 2.46416,-6.739872 0.340561,-1.507296 0.576405,-2.261676 0.668105,-3.807063 0.07657,-1.290523 -0.01495,-2.221015 -0.283634,-3.474833 -0.11136,-0.519684 -0.232113,-1.041035 -0.420626,-1.537957 -0.15965,-0.420838 -0.412152,-0.800309 -0.618228,-1.200465 -1.265614,-0.833678 -2.503988,-1.710256 -3.796837,-2.501035 -0.309343,-0.189211 -0.646944,-0.342746 -0.998408,-0.432003 -1.301692,-0.330584 -2.889303,0.301582 -4.113819,0.682093 -1.063021,0.464126 -0.742428,0.290412 -1.666787,0.810276 -0.199396,0.112141 -0.411263,0.206065 -0.594156,0.343482 -0.153771,0.115535 -0.55988,0.291941 -0.407157,0.408852 3.063298,2.345005 2.465525,2.741539 3.639325,1.778741 1.439058,-1.210622 2.753574,-2.560558 4.073088,-3.897667 1.318369,-1.392333 1.079246,-1.117359 2.378425,-2.582844 0.404235,-0.45598 0.815329,-0.906248 1.20497,-1.374764 0.467302,-0.561898 1.317175,-1.616149 1.649376,-2.330244 0.120967,-0.260032 0.147563,-0.554281 0.221347,-0.831421 -0.01495,-0.234805 0.02962,-0.481232 -0.04485,-0.704416 -0.06151,-0.184333 -0.184518,-0.361559 -0.34661,-0.468741 -0.605271,-0.400236 -3.425526,-2.304929 -4.952029,-2.694713 -0.263144,-0.06719 -0.534916,-0.09434 -0.802375,-0.141504 -0.714444,-0.0021 -1.029518,-0.03651 -1.747107,0.104021 -1.366729,0.267655 -2.597211,0.974968 -3.873275,1.494009 -1.628892,0.74707 -0.564227,0.250923 -2.179601,1.023165 -1.024157,0.489604 -2.08236,0.936969 -3.003312,1.611733 -0.07767,0.119531 -0.345476,0.271024 -0.232999,0.358595 2.60827,2.030738 2.530704,2.3138 4.640971,2.007352 2.605143,-0.483989 5.168588,-1.1835 7.657967,-2.093479 0.782215,-0.298955 1.574295,-0.573278 2.346648,-0.896863 1.934459,-0.810456 3.579768,-1.62374 5.409869,-2.668387 2.254623,-1.28697 3.895096,-2.317165 5.892501,-3.99159 0.915562,-0.767513 1.745578,-1.631647 2.618365,-2.447471 1.697124,-1.960404 3.07354,-3.450698 4.568303,-5.580635 1.370539,-1.95293 2.068291,-3.282636 3.039687,-5.415865 0.355052,-0.779707 0.720484,-1.558725 0.989285,-2.372206 0.196474,-0.5946006 0.267351,-1.2235729 0.401029,-1.8353591 -0.08169,-0.426574 0.07027,-0.9810718 -0.245086,-1.2797216 C 61.433519,6.8532767 58.456644,4.6734456 56.983489,4.2611046 56.506509,4.1275964 56.011939,4.0586875 55.519168,4.0085752 53.89337,3.8432397 52.852674,3.9433472 51.176036,3.9991752 50.185372,4.112214 49.189219,4.1845899 48.204045,4.3382912 45.520258,4.7570004 43.446398,5.2835823 40.808616,6.0280386 39.333074,6.4444771 37.86062,6.87461 36.404679,7.355106 c -3.928337,1.296448 -5.264663,1.9192986 -9.10505,3.486353 -3.715276,1.545193 -5.306814,2.169363 -8.91029,3.809754 -1.20262,0.547462 -2.388062,1.131909 -3.583745,1.694359 -3.924642,1.846155 -1.983957,0.879834 -5.1190501,2.474992 -0.3450312,0.175555 -0.6894743,0.352262 -1.0342113,0.528393 z" />
    </g>
</svg>
